REM DIRINDEX 1\6,1\2\7,1\2\8,1\2\9,1\3\10,1\3\11,1\4\12,1\4\13,1\4\14,1\5\15,1\5\16,1\5\17
REM DIRNAME cjc040,folder01,folder02,folder03,folder04,folder05,folder06,folder07,folder08,folder09,folder10,folder11,folder12,folder13,folder14,folder15,folder16
TITLE ""
FILE "P2Q_t2_0322-0339.mp3" MP3
  TRACK 01 AUDIO
    TITLE "7:cjc040_4794"
    INDEX 01 00:00:00
  TRACK 02 AUDIO
    TITLE "0:"
    INDEX 01 00:01:07
  TRACK 03 AUDIO
    TITLE "8:cjc040_4795"
    INDEX 01 00:01:56
  TRACK 04 AUDIO
    TITLE "0:"
    INDEX 01 00:03:17
  TRACK 05 AUDIO
    TITLE "9:cjc040_4796"
    INDEX 01 00:03:68
  TRACK 06 AUDIO
    TITLE "0:"
    INDEX 01 00:05:10
  TRACK 07 AUDIO
    TITLE "7:cjc040_4797"
    INDEX 01 00:06:71
  TRACK 08 AUDIO
    TITLE "0:"
    INDEX 01 00:07:72
  TRACK 09 AUDIO
    TITLE "8:cjc040_4798"
    INDEX 01 00:08:46
  TRACK 10 AUDIO
    TITLE "0:"
    INDEX 01 00:11:21
  TRACK 11 AUDIO
    TITLE "9:cjc040_4799"
    INDEX 01 00:11:74
  TRACK 12 AUDIO
    TITLE "0:"
    INDEX 01 00:13:04
  TRACK 13 AUDIO
    TITLE "7:cjc040_4800"
    INDEX 01 00:14:54
  TRACK 14 AUDIO
    TITLE "0:"
    INDEX 01 00:15:72
  TRACK 15 AUDIO
    TITLE "8:cjc040_4801"
    INDEX 01 00:16:49
  TRACK 16 AUDIO
    TITLE "0:"
    INDEX 01 00:18:01
  TRACK 17 AUDIO
    TITLE "9:cjc040_4802"
    INDEX 01 00:18:52
  TRACK 18 AUDIO
    TITLE "0:"
    INDEX 01 00:19:69
  TRACK 19 AUDIO
    TITLE "7:cjc040_4803"
    INDEX 01 00:21:53
  TRACK 20 AUDIO
    TITLE "0:"
    INDEX 01 00:23:08
  TRACK 21 AUDIO
    TITLE "8:cjc040_4804"
    INDEX 01 00:23:63
  TRACK 22 AUDIO
    TITLE "0:"
    INDEX 01 00:25:19
  TRACK 23 AUDIO
    TITLE "9:cjc040_4805"
    INDEX 01 00:25:74
  TRACK 24 AUDIO
    TITLE "0:"
    INDEX 01 00:27:28
  TRACK 25 AUDIO
    TITLE "7:cjc040_4806"
    INDEX 01 00:29:05
  TRACK 26 AUDIO
    TITLE "0:"
    INDEX 01 00:30:12
  TRACK 27 AUDIO
    TITLE "8:cjc040_4807"
    INDEX 01 00:30:73
  TRACK 28 AUDIO
    TITLE "0:"
    INDEX 01 00:32:17
  TRACK 29 AUDIO
    TITLE "9:cjc040_4808"
    INDEX 01 00:32:70
  TRACK 30 AUDIO
    TITLE "0:"
    INDEX 01 00:34:10
  TRACK 31 AUDIO
    TITLE "7:cjc040_4809"
    INDEX 01 00:35:66
  TRACK 32 AUDIO
    TITLE "0:"
    INDEX 01 00:37:07
  TRACK 33 AUDIO
    TITLE "8:cjc040_4810"
    INDEX 01 00:38:00
  TRACK 34 AUDIO
    TITLE "0:"
    INDEX 01 00:39:17
  TRACK 35 AUDIO
    TITLE "9:cjc040_4811"
    INDEX 01 00:39:68
  TRACK 36 AUDIO
    TITLE "0:"
    INDEX 01 00:41:06
  TRACK 37 AUDIO
    TITLE "7:cjc040_4812"
    INDEX 01 00:43:01
  TRACK 38 AUDIO
    TITLE "0:"
    INDEX 01 00:44:24
  TRACK 39 AUDIO
    TITLE "8:cjc040_4813"
    INDEX 01 00:45:04
  TRACK 40 AUDIO
    TITLE "0:"
    INDEX 01 00:46:25
  TRACK 41 AUDIO
    TITLE "9:cjc040_4814"
    INDEX 01 00:47:01
  TRACK 42 AUDIO
    TITLE "0:"
    INDEX 01 00:48:28
  TRACK 43 AUDIO
    TITLE "7:cjc040_4815"
    INDEX 01 00:50:07
  TRACK 44 AUDIO
    TITLE "0:"
    INDEX 01 00:51:15
  TRACK 45 AUDIO
    TITLE "8:cjc040_4816"
    INDEX 01 00:51:67
  TRACK 46 AUDIO
    TITLE "0:"
    INDEX 01 00:53:13
  TRACK 47 AUDIO
    TITLE "9:cjc040_4817"
    INDEX 01 00:54:01
  TRACK 48 AUDIO
    TITLE "0:"
    INDEX 01 00:55:12
  TRACK 49 AUDIO
    TITLE "7:cjc040_4818"
    INDEX 01 00:56:74
  TRACK 50 AUDIO
    TITLE "0:"
    INDEX 01 00:58:11
  TRACK 51 AUDIO
    TITLE "8:cjc040_4819"
    INDEX 01 00:58:66
  TRACK 52 AUDIO
    TITLE "0:"
    INDEX 01 01:02:32
  TRACK 53 AUDIO
    TITLE "9:cjc040_4820"
    INDEX 01 01:03:08
  TRACK 54 AUDIO
    TITLE "0:"
    INDEX 01 01:04:25
  TRACK 55 AUDIO
    TITLE "7:cjc040_4821"
    INDEX 01 01:06:10
  TRACK 56 AUDIO
    TITLE "0:"
    INDEX 01 01:07:45
  TRACK 57 AUDIO
    TITLE "8:cjc040_4822"
    INDEX 01 01:08:25
  TRACK 58 AUDIO
    TITLE "0:"
    INDEX 01 01:09:38
  TRACK 59 AUDIO
    TITLE "9:cjc040_4823"
    INDEX 01 01:10:20
  TRACK 60 AUDIO
    TITLE "0:"
    INDEX 01 01:11:58
  TRACK 61 AUDIO
    TITLE "7:cjc040_4824"
    INDEX 01 01:13:40
  TRACK 62 AUDIO
    TITLE "0:"
    INDEX 01 01:14:45
  TRACK 63 AUDIO
    TITLE "8:cjc040_4825"
    INDEX 01 01:15:27
  TRACK 64 AUDIO
    TITLE "0:"
    INDEX 01 01:17:55
  TRACK 65 AUDIO
    TITLE "9:cjc040_4826"
    INDEX 01 01:18:31
  TRACK 66 AUDIO
    TITLE "0:"
    INDEX 01 01:19:40
  TRACK 67 AUDIO
    TITLE "7:cjc040_4827"
    INDEX 01 01:21:31
  TRACK 68 AUDIO
    TITLE "0:"
    INDEX 01 01:22:41
  TRACK 69 AUDIO
    TITLE "8:cjc040_4828"
    INDEX 01 01:23:22
  TRACK 70 AUDIO
    TITLE "0:"
    INDEX 01 01:24:37
  TRACK 71 AUDIO
    TITLE "9:cjc040_4829"
    INDEX 01 01:25:21
  TRACK 72 AUDIO
    TITLE "0:"
    INDEX 01 01:26:32
  TRACK 73 AUDIO
    TITLE "7:cjc040_4830"
    INDEX 01 01:28:22
  TRACK 74 AUDIO
    TITLE "0:"
    INDEX 01 01:29:35
  TRACK 75 AUDIO
    TITLE "8:cjc040_4831"
    INDEX 01 01:30:18
  TRACK 76 AUDIO
    TITLE "0:"
    INDEX 01 01:33:42
  TRACK 77 AUDIO
    TITLE "9:cjc040_4832"
    INDEX 01 01:34:20
  TRACK 78 AUDIO
    TITLE "0:"
    INDEX 01 01:35:39
  TRACK 79 AUDIO
    TITLE "7:cjc040_4833"
    INDEX 01 01:37:24
  TRACK 80 AUDIO
    TITLE "0:"
    INDEX 01 01:38:34
  TRACK 81 AUDIO
    TITLE "8:cjc040_4834"
    INDEX 01 01:39:14
  TRACK 82 AUDIO
    TITLE "0:"
    INDEX 01 01:43:68
  TRACK 83 AUDIO
    TITLE "9:cjc040_4835"
    INDEX 01 01:44:40
  TRACK 84 AUDIO
    TITLE "0:"
    INDEX 01 01:45:49
  TRACK 85 AUDIO
    TITLE "7:cjc040_4836"
    INDEX 01 01:47:37
  TRACK 86 AUDIO
    TITLE "0:"
    INDEX 01 01:48:44
  TRACK 87 AUDIO
    TITLE "8:cjc040_4837"
    INDEX 01 01:49:26
  TRACK 88 AUDIO
    TITLE "0:"
    INDEX 01 01:51:64
  TRACK 89 AUDIO
    TITLE "9:cjc040_4838"
    INDEX 01 01:52:38
  TRACK 90 AUDIO
    TITLE "0:"
    INDEX 01 01:53:49
  TRACK 91 AUDIO
    TITLE "7:cjc040_4839"
    INDEX 01 01:55:30
  TRACK 92 AUDIO
    TITLE "0:"
    INDEX 01 01:56:43
  TRACK 93 AUDIO
    TITLE "8:cjc040_4840"
    INDEX 01 01:57:27
  TRACK 94 AUDIO
    TITLE "0:"
    INDEX 01 01:58:62
  TRACK 95 AUDIO
    TITLE "9:cjc040_4841"
    INDEX 01 01:59:42
  TRACK 96 AUDIO
    TITLE "0:"
    INDEX 01 02:00:61
  TRACK 97 AUDIO
    TITLE "7:cjc040_4842"
    INDEX 01 02:02:44
  TRACK 98 AUDIO
    TITLE "0:"
    INDEX 01 02:03:57
  TRACK 99 AUDIO
    TITLE "8:cjc040_4843"
    INDEX 01 02:04:37
  TRACK 100 AUDIO
    TITLE "0:"
    INDEX 01 02:06:52
  TRACK 101 AUDIO
    TITLE "9:cjc040_4844"
    INDEX 01 02:07:29
  TRACK 102 AUDIO
    TITLE "0:"
    INDEX 01 02:08:47
  TRACK 103 AUDIO
    TITLE "7:cjc040_4845"
    INDEX 01 02:10:34
  TRACK 104 AUDIO
    TITLE "0:"
    INDEX 01 02:11:29
  TRACK 105 AUDIO
    TITLE "8:cjc040_4846"
    INDEX 01 02:12:15
  TRACK 106 AUDIO
    TITLE "0:"
    INDEX 01 02:17:44
  TRACK 107 AUDIO
    TITLE "9:cjc040_4847"
    INDEX 01 02:18:21
  TRACK 108 AUDIO
    TITLE "0:"
    INDEX 01 02:19:17
